<svg xmlns="http://www.w3.org/2000/svg" viewBox="0 0 410 404"><defs><linearGradient id="a" x1="6.003" x2="235" y1="32.965" y2="344" gradientUnits="userSpaceOnUse"><stop offset="0" stop-color="#41D1FF"/><stop offset="1" stop-color="#BD34FE"/></linearGradient><linearGradient id="b" x1="194.651" x2="236.076" y1="8.818" y2="292.989" gradientUnits="userSpaceOnUse"><stop offset="0" stop-color="#FFEA83"/><stop offset=".083" stop-color="#FFDD35"/><stop offset="1" stop-color="#FFA800"/></linearGradient></defs><path fill="url(#a)" d="M399.641 59.5246L215.643 388.545c-3.799 6.793-13.559 6.833-17.415.073L10.12 59.6226c-4.201-7.357 2.106-16.3 10.519-14.795L210.637 79.2226c1.185.212 2.398.208 3.582-.019L389.35 44.7226c8.381-1.635 14.78 7.256 10.291 14.802z"/><path fill="url(#b)" d="M292.965 1.5744L156.801 28.2624c-2.237.438-3.878 2.358-3.995 4.63l-8.382 141.594c-.17 3.326 2.858 5.953 6.120 5.303l37.928-8.76c3.564-.827 6.779 2.311 6.068 5.897l-11.262 55.161c-.738 3.728 2.742 6.869 6.367 5.897l23.432-7.112c3.631-1.102 7.118 2.086 6.364 5.825l-17.914 86.713c-1.103 5.385 6.059 8.332 9.066 3.723L212 127.124c2.202-3.413-.639-7.875-4.639-7.092l-39.011 7.533c-3.604.697-6.631-2.533-5.686-6.046l25.365-91.35c.945-3.523-2.071-6.848-5.738-6.322z"/></svg>
